<?xml version="1.0" encoding="UTF-8" standalone="no"?>
<!DOCTYPE svg PUBLIC "-//W3C//DTD SVG 1.1//EN"
 "http://www.w3.org/Graphics/SVG/1.1/DTD/svg11.dtd">
<!-- Generated by graphviz version 2.38.0 (20140413.2041)
 -->
<!-- Title: %3 Pages: 1 -->
<svg width="763pt" height="332pt"
 viewBox="0.00 0.00 762.59 332.00" xmlns="http://www.w3.org/2000/svg" xmlns:xlink="http://www.w3.org/1999/xlink">
<g id="graph0" class="graph" transform="scale(1 1) rotate(0) translate(4 328)">
<title>%3</title>
<polygon fill="white" stroke="none" points="-4,4 -4,-328 758.588,-328 758.588,4 -4,4"/>
<!-- [root] aws_instance.example -->
<g id="node1" class="node"><title>[root] aws_instance.example</title>
<polygon fill="none" stroke="black" points="522.5,-180 345.5,-180 345.5,-144 522.5,-144 522.5,-180"/>
<text text-anchor="middle" x="434" y="-158.3" font-family="Times,serif" font-size="14.00">aws_instance.example</text>
</g>
<!-- [root] provider.aws -->
<g id="node2" class="node"><title>[root] provider.aws</title>
<polygon fill="none" stroke="black" points="275,-108 175.961,-90 275,-72 374.039,-90 275,-108"/>
<text text-anchor="middle" x="275" y="-86.3" font-family="Times,serif" font-size="14.00">provider.aws</text>
</g>
<!-- [root] aws_instance.example&#45;&gt;[root] provider.aws -->
<g id="edge1" class="edge"><title>[root] aws_instance.example&#45;&gt;[root] provider.aws</title>
<path fill="none" stroke="black" d="M395.104,-143.876C369.781,-132.728 336.945,-118.272 312.008,-107.293"/>
<polygon fill="black" stroke="black" points="313.094,-103.947 302.531,-103.121 310.273,-110.353 313.094,-103.947"/>
</g>
<!-- [root] var.AMIS -->
<g id="node3" class="node"><title>[root] var.AMIS</title>
<polygon fill="none" stroke="black" points="469.5,-108 392.5,-108 392.5,-72 475.5,-72 475.5,-102 469.5,-108"/>
<polyline fill="none" stroke="black" points="469.5,-108 469.5,-102 "/>
<polyline fill="none" stroke="black" points="475.5,-102 469.5,-102 "/>
<text text-anchor="middle" x="434" y="-86.3" font-family="Times,serif" font-size="14.00">var.AMIS</text>
</g>
<!-- [root] aws_instance.example&#45;&gt;[root] var.AMIS -->
<g id="edge2" class="edge"><title>[root] aws_instance.example&#45;&gt;[root] var.AMIS</title>
<path fill="none" stroke="black" d="M434,-143.697C434,-135.983 434,-126.712 434,-118.112"/>
<polygon fill="black" stroke="black" points="437.5,-118.104 434,-108.104 430.5,-118.104 437.5,-118.104"/>
</g>
<!-- [root] var.INSTANCE_TYPE -->
<g id="node7" class="node"><title>[root] var.INSTANCE_TYPE</title>
<polygon fill="none" stroke="black" points="658,-108 494,-108 494,-72 664,-72 664,-102 658,-108"/>
<polyline fill="none" stroke="black" points="658,-108 658,-102 "/>
<polyline fill="none" stroke="black" points="664,-102 658,-102 "/>
<text text-anchor="middle" x="579" y="-86.3" font-family="Times,serif" font-size="14.00">var.INSTANCE_TYPE</text>
</g>
<!-- [root] aws_instance.example&#45;&gt;[root] var.INSTANCE_TYPE -->
<g id="edge3" class="edge"><title>[root] aws_instance.example&#45;&gt;[root] var.INSTANCE_TYPE</title>
<path fill="none" stroke="black" d="M469.471,-143.876C489.117,-134.392 513.722,-122.513 534.632,-112.419"/>
<polygon fill="black" stroke="black" points="536.16,-115.568 543.644,-108.068 533.117,-109.264 536.16,-115.568"/>
</g>
<!-- [root] var.AWS_ACCESS_KEY -->
<g id="node4" class="node"><title>[root] var.AWS_ACCESS_KEY</title>
<polygon fill="none" stroke="black" points="178,-36 0,-36 0,-0 184,-0 184,-30 178,-36"/>
<polyline fill="none" stroke="black" points="178,-36 178,-30 "/>
<polyline fill="none" stroke="black" points="184,-30 178,-30 "/>
<text text-anchor="middle" x="92" y="-14.3" font-family="Times,serif" font-size="14.00">var.AWS_ACCESS_KEY</text>
</g>
<!-- [root] provider.aws&#45;&gt;[root] var.AWS_ACCESS_KEY -->
<g id="edge6" class="edge"><title>[root] provider.aws&#45;&gt;[root] var.AWS_ACCESS_KEY</title>
<path fill="none" stroke="black" d="M244.781,-77.4409C218.101,-67.2354 178.556,-52.1088 146.383,-39.8022"/>
<polygon fill="black" stroke="black" points="147.248,-36.3857 136.657,-36.082 144.747,-42.9237 147.248,-36.3857"/>
</g>
<!-- [root] var.AWS_REGION -->
<g id="node5" class="node"><title>[root] var.AWS_REGION</title>
<polygon fill="none" stroke="black" points="342,-36 202,-36 202,-0 348,-0 348,-30 342,-36"/>
<polyline fill="none" stroke="black" points="342,-36 342,-30 "/>
<polyline fill="none" stroke="black" points="348,-30 342,-30 "/>
<text text-anchor="middle" x="275" y="-14.3" font-family="Times,serif" font-size="14.00">var.AWS_REGION</text>
</g>
<!-- [root] provider.aws&#45;&gt;[root] var.AWS_REGION -->
<g id="edge7" class="edge"><title>[root] provider.aws&#45;&gt;[root] var.AWS_REGION</title>
<path fill="none" stroke="black" d="M275,-71.6966C275,-63.9827 275,-54.7125 275,-46.1124"/>
<polygon fill="black" stroke="black" points="278.5,-46.1043 275,-36.1043 271.5,-46.1044 278.5,-46.1043"/>
</g>
<!-- [root] var.AWS_SECRET_KEY -->
<g id="node6" class="node"><title>[root] var.AWS_SECRET_KEY</title>
<polygon fill="none" stroke="black" points="543.5,-36 366.5,-36 366.5,-0 549.5,-0 549.5,-30 543.5,-36"/>
<polyline fill="none" stroke="black" points="543.5,-36 543.5,-30 "/>
<polyline fill="none" stroke="black" points="549.5,-30 543.5,-30 "/>
<text text-anchor="middle" x="458" y="-14.3" font-family="Times,serif" font-size="14.00">var.AWS_SECRET_KEY</text>
</g>
<!-- [root] provider.aws&#45;&gt;[root] var.AWS_SECRET_KEY -->
<g id="edge8" class="edge"><title>[root] provider.aws&#45;&gt;[root] var.AWS_SECRET_KEY</title>
<path fill="none" stroke="black" d="M305.219,-77.4409C331.899,-67.2354 371.444,-52.1088 403.617,-39.8022"/>
<polygon fill="black" stroke="black" points="405.253,-42.9237 413.343,-36.082 402.752,-36.3857 405.253,-42.9237"/>
</g>
<!-- [root] meta.count&#45;boundary (EachMode fixup) -->
<g id="node8" class="node"><title>[root] meta.count&#45;boundary (EachMode fixup)</title>
<ellipse fill="none" stroke="black" cx="247" cy="-234" rx="224.46" ry="18"/>
<text text-anchor="middle" x="247" y="-230.3" font-family="Times,serif" font-size="14.00">[root] meta.count&#45;boundary (EachMode fixup)</text>
</g>
<!-- [root] meta.count&#45;boundary (EachMode fixup)&#45;&gt;[root] aws_instance.example -->
<g id="edge4" class="edge"><title>[root] meta.count&#45;boundary (EachMode fixup)&#45;&gt;[root] aws_instance.example</title>
<path fill="none" stroke="black" d="M291.791,-216.233C317.888,-206.464 351.009,-194.066 378.72,-183.693"/>
<polygon fill="black" stroke="black" points="380.137,-186.9 388.275,-180.116 377.683,-180.344 380.137,-186.9"/>
</g>
<!-- [root] provider.aws (close) -->
<g id="node9" class="node"><title>[root] provider.aws (close)</title>
<ellipse fill="none" stroke="black" cx="622" cy="-234" rx="132.677" ry="18"/>
<text text-anchor="middle" x="622" y="-230.3" font-family="Times,serif" font-size="14.00">[root] provider.aws (close)</text>
</g>
<!-- [root] provider.aws (close)&#45;&gt;[root] aws_instance.example -->
<g id="edge5" class="edge"><title>[root] provider.aws (close)&#45;&gt;[root] aws_instance.example</title>
<path fill="none" stroke="black" d="M578.869,-216.941C552.28,-207.04 517.92,-194.247 489.336,-183.604"/>
<polygon fill="black" stroke="black" points="490.477,-180.294 479.884,-180.084 488.034,-186.854 490.477,-180.294"/>
</g>
<!-- [root] root -->
<g id="node10" class="node"><title>[root] root</title>
<ellipse fill="none" stroke="black" cx="434" cy="-306" rx="58.4896" ry="18"/>
<text text-anchor="middle" x="434" y="-302.3" font-family="Times,serif" font-size="14.00">[root] root</text>
</g>
<!-- [root] root&#45;&gt;[root] meta.count&#45;boundary (EachMode fixup) -->
<g id="edge9" class="edge"><title>[root] root&#45;&gt;[root] meta.count&#45;boundary (EachMode fixup)</title>
<path fill="none" stroke="black" d="M398.387,-291.669C370.921,-281.387 332.468,-266.993 301.19,-255.285"/>
<polygon fill="black" stroke="black" points="302.326,-251.973 291.734,-251.745 299.872,-258.529 302.326,-251.973"/>
</g>
<!-- [root] root&#45;&gt;[root] provider.aws (close) -->
<g id="edge10" class="edge"><title>[root] root&#45;&gt;[root] provider.aws (close)</title>
<path fill="none" stroke="black" d="M469.804,-291.669C497.899,-281.208 537.43,-266.489 569.163,-254.673"/>
<polygon fill="black" stroke="black" points="570.589,-257.877 578.739,-251.108 568.146,-251.317 570.589,-257.877"/>
</g>
</g>
</svg>
